<svg width="17" height="16" viewBox="0 0 17 16" fill="none" xmlns="http://www.w3.org/2000/svg">
<path fill-rule="evenodd" clip-rule="evenodd" d="M12.316 8.42105C12.1056 10.4323 10.4048 12 8.33789 12C6.27096 12 4.57019 10.4323 4.35979 8.42105H6.27474C6.4698 9.382 7.31938 10.1053 8.33789 10.1053C9.3564 10.1053 10.206 9.382 10.401 8.42105H12.316ZM10.401 7.57895H12.316C12.1056 5.56772 10.4048 4 8.33789 4C6.27096 4 4.57019 5.56772 4.35979 7.57895H6.27474C6.4698 6.618 7.31938 5.89474 8.33789 5.89474C9.3564 5.89474 10.206 6.618 10.401 7.57895ZM16.3379 8C16.3379 12.4183 12.7562 16 8.33789 16C3.91961 16 0.337891 12.4183 0.337891 8C0.337891 3.58172 3.91961 0 8.33789 0C12.7562 0 16.3379 3.58172 16.3379 8ZM9.60105 8C9.60105 8.69762 9.03551 9.26316 8.33789 9.26316C7.64027 9.26316 7.07473 8.69762 7.07473 8C7.07473 7.30238 7.64027 6.73684 8.33789 6.73684C9.03551 6.73684 9.60105 7.30238 9.60105 8Z" fill="white"/>
</svg>
