<svg width="140" height="48" viewBox="0 0 140 48" fill="none" xmlns="http://www.w3.org/2000/svg">
<path d="M48.6685 37.4765C48.791 38.4571 48.0953 39.3514 47.1147 39.4739C46.1341 39.5964 45.2398 38.9007 45.1173 37.9201C44.9948 36.9395 45.6905 36.0452 46.6711 35.9227C47.6517 35.8002 48.546 36.4959 48.6685 37.4765Z" fill="white"/>
<path d="M81.9604 36.9242C82.0829 37.9049 81.3873 38.7991 80.4067 38.9216C79.4261 39.0441 78.5318 38.3485 78.4093 37.3679C78.2868 36.3872 78.9825 35.493 79.9631 35.3705C80.9437 35.248 81.8379 35.9436 81.9604 36.9242Z" fill="white"/>
<g clip-path="url(#clip0_38_1555)">
<path d="M1.4502 8.41026H6.35307L6.24571 10.808H6.38886C7.00917 9.85366 7.76071 9.12601 8.64347 8.62499C9.55008 8.12396 10.576 7.87345 11.7212 7.87345C13.7969 7.87345 15.4192 8.6727 16.5883 10.2712C17.7812 11.8459 18.3777 14.0528 18.3777 16.8919C18.3777 20.2559 17.4949 22.8445 15.7294 24.6578C13.9877 26.4471 11.4945 27.3418 8.24981 27.3418C7.84422 27.3418 7.23583 27.3179 6.42465 27.2702V34.6425H1.4502V8.41026ZM8.75083 22.94C10.254 22.94 11.3872 22.4508 12.1507 21.4727C12.938 20.4945 13.3317 19.063 13.3317 17.1782C13.3317 15.6512 13.0812 14.4583 12.5801 13.5994C12.1029 12.7167 11.4349 12.2753 10.576 12.2753C9.81251 12.2753 9.07292 12.6093 8.35717 13.2774C7.64142 13.9215 6.99725 14.852 6.42465 16.0688V22.6179C7.23583 22.8326 8.01122 22.94 8.75083 22.94ZM30.797 27.3776C28.9361 27.3776 27.2898 26.972 25.8583 26.1608C24.4507 25.3496 23.3532 24.2164 22.5659 22.761C21.7786 21.2818 21.3849 19.5759 21.3849 17.6434C21.3849 15.7109 21.7667 14.017 22.5301 12.5616C23.3174 11.0824 24.4149 9.93722 25.8226 9.12601C27.2541 8.31483 28.9003 7.90924 30.7612 7.90924C32.6222 7.90924 34.2565 8.31483 35.6641 9.12601C37.0956 9.91334 38.1931 11.0346 38.9566 12.49C39.7439 13.9454 40.1375 15.6274 40.1375 17.5361C40.1375 19.4686 39.7439 21.1864 38.9566 22.6895C38.1931 24.1686 37.0956 25.3258 35.6641 26.1608C34.2565 26.972 32.6341 27.3776 30.797 27.3776ZM30.7612 23.0115C32.0496 23.0115 33.0755 22.5224 33.8389 21.5443C34.6263 20.5422 35.0199 19.23 35.0199 17.6076C35.0199 15.9853 34.6263 14.697 33.8389 13.7426C33.0755 12.7644 32.0496 12.2753 30.7612 12.2753C29.4729 12.2753 28.435 12.7644 27.6477 13.7426C26.8843 14.697 26.5025 15.9853 26.5025 17.6076C26.5025 19.23 26.8843 20.5422 27.6477 21.5443C28.435 22.5224 29.4729 23.0115 30.7612 23.0115ZM48.9239 18.8244V26.8408H43.8779V0.680176H48.9239V15.1383L54.6857 8.41026H60.6622L53.29 16.6772L61.0558 26.6261L55.5804 27.3776L48.9239 18.8244ZM81.5299 23.5126L90.3692 12.7405H82.1383V8.41026H96.5247V11.7027L87.7211 22.5105H96.5247V26.805H81.5299V23.5126ZM108.208 27.3776C106.347 27.3776 104.701 26.972 103.27 26.1608C101.862 25.3496 100.765 24.2164 99.9773 22.761C99.1899 21.2818 98.7963 19.5759 98.7963 17.6434C98.7963 15.7109 99.1783 14.017 99.9415 12.5616C100.729 11.0824 101.827 9.93722 103.234 9.12601C104.665 8.31483 106.312 7.90924 108.173 7.90924C110.034 7.90924 111.668 8.31483 113.075 9.12601C114.507 9.91334 115.605 11.0346 116.368 12.49C117.155 13.9454 117.549 15.6274 117.549 17.5361C117.549 19.4686 117.155 21.1864 116.368 22.6895C115.605 24.1686 114.507 25.3258 113.075 26.1608C111.668 26.972 110.045 27.3776 108.208 27.3776ZM108.173 23.0115C109.461 23.0115 110.487 22.5224 111.25 21.5443C112.038 20.5422 112.431 19.23 112.431 17.6076C112.431 15.9853 112.038 14.697 111.25 13.7426C110.487 12.7644 109.461 12.2753 108.173 12.2753C106.884 12.2753 105.846 12.7644 105.059 13.7426C104.296 14.697 103.914 15.9853 103.914 17.6076C103.914 19.23 104.296 20.5422 105.059 21.5443C105.846 22.5224 106.884 23.0115 108.173 23.0115ZM121.29 8.41026H126.228V11.5953C126.991 10.3309 127.874 9.40041 128.877 8.80392C129.879 8.20746 131.047 7.90924 132.384 7.90924C134.364 7.90924 135.914 8.5057 137.036 9.69861C138.157 10.8677 138.718 12.5019 138.718 14.6015V26.8408H133.672V15.3888C133.672 14.4345 133.433 13.6949 132.956 13.17C132.479 12.6213 131.834 12.3469 131.024 12.3469C130.069 12.3469 129.163 12.7048 128.304 13.4205C127.445 14.1363 126.788 15.0428 126.336 16.1404V26.8408H121.29V8.41026Z" fill="white"/>
</g>
<path fill-rule="evenodd" clip-rule="evenodd" d="M80.2484 18.7884C80.275 18.4938 80.2886 18.1954 80.2886 17.8938C80.2886 12.4585 75.8824 8.05225 70.447 8.05225C65.0117 8.05225 60.6055 12.4585 60.6055 17.8938C60.6055 23.3291 65.0117 27.7353 70.447 27.7353C74.9519 27.7353 78.7498 24.7086 79.9181 20.5778H75.0964C74.1682 22.1821 72.4335 23.2614 70.4467 23.2614C67.7869 23.2614 65.579 21.3271 65.1529 18.7884L67.9161 18.7884C68.2844 19.8311 69.2787 20.5782 70.4476 20.5782C71.6164 20.5782 72.6107 19.8311 72.979 18.7884H75.7405L80.2484 18.7884ZM75.7407 16.999H72.9787C72.6102 15.9568 71.6161 15.2101 70.4476 15.2101C69.2791 15.2101 68.285 15.9568 67.9164 16.999H65.1527C65.5785 14.46 67.7866 12.5252 70.4467 12.5252C73.1067 12.5252 75.3149 14.46 75.7407 16.999ZM71.3423 17.8942C71.3423 18.3883 70.9417 18.7888 70.4476 18.7888C69.9534 18.7888 69.5529 18.3883 69.5529 17.8942C69.5529 17.4 69.9534 16.9995 70.4476 16.9995C70.9417 16.9995 71.3423 17.4 71.3423 17.8942Z" fill="white"/>
<path fill-rule="evenodd" clip-rule="evenodd" d="M33.9278 40.41C34.3396 39.5116 35.4016 39.1171 36.3 39.5289C41.3993 41.8661 49.7897 43.8236 59.6607 44.307C69.5068 44.7891 80.6924 43.7971 91.3696 40.3475C92.3099 40.0437 93.3186 40.5597 93.6224 41.5001C93.9262 42.4405 93.4102 43.4491 92.4698 43.7529C81.307 47.3594 69.6781 48.3805 59.4857 47.8814C49.3181 47.3836 40.4458 45.3658 34.8089 42.7822C33.9105 42.3704 33.516 41.3084 33.9278 40.41Z" fill="white"/>
<defs>
<clipPath id="clip0_38_1555">
<rect width="138.676" height="34.8928" fill="white" transform="translate(0.661621)"/>
</clipPath>
</defs>
</svg>
