<svg width="24" height="24" viewBox="0 0 24 24" fill="none" xmlns="http://www.w3.org/2000/svg">
<g clip-path="url(#clip0_38_2642)">
<path fill-rule="evenodd" clip-rule="evenodd" d="M9.37521 6.31419C8.04156 7.04959 6.94474 8.16088 6.22698 9.50487C6.10657 9.44755 5.98126 9.39446 5.85157 9.34623C5.28694 9.13627 4.45231 8.94907 3.63399 8.85336L2.95901 9.99093L2.7265 11.2945C3.40848 11.7566 4.16254 12.1602 4.72711 12.3701C4.92986 12.4455 5.13229 12.5049 5.33122 12.5489C5.27002 13.2909 5.31187 14.062 5.47106 14.8478C6.02758 17.6183 8.14476 19.9048 10.8427 20.7154C13.4559 21.5018 15.9118 20.8969 17.787 19.5298L21.1385 22.8813C21.6103 23.3531 22.3725 23.3531 22.8444 22.8813C23.3162 22.4094 23.3162 21.6472 22.8444 21.1754L19.4929 17.8239C20.86 15.9487 21.4649 13.4928 20.6785 10.8796C19.8558 8.18166 17.5693 6.06448 14.8109 5.50796C13.9835 5.34072 13.173 5.30325 12.3957 5.37887C12.358 5.19082 12.3068 4.99948 12.2415 4.80747C12.0476 4.23713 11.6656 3.47188 11.2229 2.77705L9.9148 2.97229L8.75719 3.61551C8.82968 4.43608 8.99312 5.27549 9.18696 5.84576C9.24239 6.00882 9.30555 6.16531 9.37521 6.31419ZM9.83707 2.74362L8.73722 3.35475C8.66402 2.21995 8.78041 1.18145 9.25087 1.02153C9.72128 0.861632 10.4464 1.61392 11.0798 2.55813L9.83707 2.74362ZM7.72133 13.2024C7.72133 10.19 10.1531 7.75823 13.1655 7.75823C16.178 7.75823 18.6097 10.19 18.6097 13.2024C18.6097 16.2149 16.178 18.6466 13.1655 18.6466C10.1531 18.6466 7.72133 16.2149 7.72133 13.2024ZM2.51173 11.1452L2.73264 9.90675L3.37389 8.82602C2.24179 8.72074 1.20064 8.80768 1.02748 9.27336C0.854297 9.73908 1.5858 10.4852 2.51173 11.1452Z" fill="#C4C4C4"/>
</g>
<defs>
<clipPath id="clip0_38_2642">
<rect width="24" height="24" fill="white"/>
</clipPath>
</defs>
</svg>
